<mxfile host="Electron" agent="Mozilla/5.0 (Windows NT 10.0; Win64; x64) AppleWebKit/537.36 (KHTML, like Gecko) draw.io/26.0.9 Chrome/128.0.6613.186 Electron/32.2.5 Safari/537.36" version="26.0.9">
  <diagram name="Page-1" id="t5GxnjVPLDD7DYdvVrp3">
    <mxGraphModel dx="2188" dy="820" grid="1" gridSize="10" guides="1" tooltips="1" connect="1" arrows="1" fold="1" page="1" pageScale="1" pageWidth="850" pageHeight="1100" math="0" shadow="0">
      <root>
        <mxCell id="0" />
        <mxCell id="1" parent="0" />
        <mxCell id="3sriAWT7Od-GNfo9Kn1I-7" value="&lt;b&gt;&lt;font style=&quot;font-size: 48px;&quot;&gt;High Level Architecture&lt;/font&gt;&lt;/b&gt;" style="text;strokeColor=none;align=center;fillColor=none;html=1;verticalAlign=middle;whiteSpace=wrap;rounded=0;" vertex="1" parent="1">
          <mxGeometry x="-100" y="40" width="790" height="30" as="geometry" />
        </mxCell>
        <mxCell id="3sriAWT7Od-GNfo9Kn1I-8" value="" style="rounded=0;whiteSpace=wrap;html=1;fillColor=none;strokeColor=light-dark(#000000,#EDEDED);strokeWidth=5;" vertex="1" parent="1">
          <mxGeometry x="30" y="160" width="150" height="550" as="geometry" />
        </mxCell>
        <mxCell id="3sriAWT7Od-GNfo9Kn1I-9" value="&lt;font style=&quot;font-size: 24px;&quot;&gt;Sources&lt;/font&gt;" style="rounded=0;whiteSpace=wrap;html=1;strokeColor=none;" vertex="1" parent="1">
          <mxGeometry x="40" y="140" width="120" height="10" as="geometry" />
        </mxCell>
        <mxCell id="3sriAWT7Od-GNfo9Kn1I-10" value="" style="rounded=0;whiteSpace=wrap;html=1;fillColor=default;strokeColor=light-dark(#000000,#EDEDED);strokeWidth=5;" vertex="1" parent="1">
          <mxGeometry x="230" y="160" width="680" height="550" as="geometry" />
        </mxCell>
        <mxCell id="3sriAWT7Od-GNfo9Kn1I-11" value="&lt;font style=&quot;font-size: 24px;&quot;&gt;Data Warehouse&lt;/font&gt;" style="rounded=0;whiteSpace=wrap;html=1;strokeColor=none;" vertex="1" parent="1">
          <mxGeometry x="475" y="140" width="210" height="10" as="geometry" />
        </mxCell>
        <mxCell id="3sriAWT7Od-GNfo9Kn1I-12" value="" style="rounded=0;whiteSpace=wrap;html=1;fillColor=none;strokeColor=light-dark(#000000,#EDEDED);strokeWidth=5;" vertex="1" parent="1">
          <mxGeometry x="970" y="160" width="150" height="550" as="geometry" />
        </mxCell>
        <mxCell id="3sriAWT7Od-GNfo9Kn1I-13" value="&lt;font style=&quot;font-size: 24px;&quot;&gt;Consume&lt;/font&gt;" style="rounded=0;whiteSpace=wrap;html=1;strokeColor=none;" vertex="1" parent="1">
          <mxGeometry x="990" y="140" width="120" height="10" as="geometry" />
        </mxCell>
        <mxCell id="3sriAWT7Od-GNfo9Kn1I-14" value="&lt;font style=&quot;font-size: 24px;&quot;&gt;Bronze Layer&lt;/font&gt;" style="rounded=0;whiteSpace=wrap;html=1;fillColor=light-dark(#f8a654, #ce6100);" vertex="1" parent="1">
          <mxGeometry x="270" y="190" width="170" height="40" as="geometry" />
        </mxCell>
        <mxCell id="3sriAWT7Od-GNfo9Kn1I-16" value="&lt;font style=&quot;font-size: 24px;&quot;&gt;Bronze Layer&lt;/font&gt;" style="rounded=0;whiteSpace=wrap;html=1;fillColor=#ffe6cc;strokeColor=#d79b00;" vertex="1" parent="1">
          <mxGeometry x="270" y="190" width="170" height="40" as="geometry" />
        </mxCell>
        <mxCell id="3sriAWT7Od-GNfo9Kn1I-17" value="" style="rounded=0;whiteSpace=wrap;html=1;fillColor=none;" vertex="1" parent="1">
          <mxGeometry x="495" y="240" width="170" height="430" as="geometry" />
        </mxCell>
        <mxCell id="3sriAWT7Od-GNfo9Kn1I-18" value="&lt;font style=&quot;font-size: 24px;&quot;&gt;Silver Layer&lt;/font&gt;" style="rounded=0;whiteSpace=wrap;html=1;fillColor=#f5f5f5;fontColor=#333333;strokeColor=#666666;" vertex="1" parent="1">
          <mxGeometry x="495" y="190" width="170" height="40" as="geometry" />
        </mxCell>
        <mxCell id="3sriAWT7Od-GNfo9Kn1I-20" value="&lt;font style=&quot;font-size: 24px;&quot;&gt;Gold Layer&lt;/font&gt;" style="rounded=0;whiteSpace=wrap;html=1;fillColor=#fff2cc;strokeColor=#d6b656;" vertex="1" parent="1">
          <mxGeometry x="720" y="190" width="170" height="40" as="geometry" />
        </mxCell>
        <mxCell id="3sriAWT7Od-GNfo9Kn1I-21" value="" style="rounded=0;whiteSpace=wrap;html=1;fillColor=none;" vertex="1" parent="1">
          <mxGeometry x="720" y="240" width="170" height="430" as="geometry" />
        </mxCell>
        <mxCell id="3sriAWT7Od-GNfo9Kn1I-22" value="&lt;b&gt;CRM&lt;/b&gt;" style="image;html=1;image=img/lib/clip_art/general/Full_Folder_128x128.png" vertex="1" parent="1">
          <mxGeometry x="65" y="290" width="70" height="50" as="geometry" />
        </mxCell>
        <mxCell id="3sriAWT7Od-GNfo9Kn1I-23" value="&lt;b&gt;ERP&lt;/b&gt;" style="image;html=1;image=img/lib/clip_art/general/Full_Folder_128x128.png" vertex="1" parent="1">
          <mxGeometry x="65" y="400" width="70" height="50" as="geometry" />
        </mxCell>
        <mxCell id="3sriAWT7Od-GNfo9Kn1I-25" value="" style="shape=link;html=1;rounded=0;" edge="1" parent="1">
          <mxGeometry width="100" relative="1" as="geometry">
            <mxPoint x="55" y="490" as="sourcePoint" />
            <mxPoint x="155" y="490" as="targetPoint" />
            <Array as="points" />
          </mxGeometry>
        </mxCell>
        <mxCell id="3sriAWT7Od-GNfo9Kn1I-27" value="&lt;b&gt;Object Type:&lt;/b&gt; CSV files&lt;div&gt;&lt;b&gt;Interface:&lt;/b&gt; FIles in Folder&lt;/div&gt;" style="text;html=1;align=center;verticalAlign=middle;whiteSpace=wrap;rounded=0;" vertex="1" parent="1">
          <mxGeometry x="30" y="510" width="140" height="30" as="geometry" />
        </mxCell>
        <mxCell id="3sriAWT7Od-GNfo9Kn1I-31" value="" style="rounded=0;whiteSpace=wrap;html=1;fillColor=none;" vertex="1" parent="1">
          <mxGeometry x="270" y="240" width="170" height="430" as="geometry" />
        </mxCell>
        <mxCell id="3sriAWT7Od-GNfo9Kn1I-32" value="" style="html=1;verticalLabelPosition=bottom;align=center;labelBackgroundColor=#ffffff;verticalAlign=top;strokeWidth=2;strokeColor=#d79b00;shadow=0;dashed=0;shape=mxgraph.ios7.icons.data;fillColor=#ffe6cc;" vertex="1" parent="1">
          <mxGeometry x="326.5" y="265" width="57" height="50" as="geometry" />
        </mxCell>
        <mxCell id="3sriAWT7Od-GNfo9Kn1I-33" value="" style="html=1;verticalLabelPosition=bottom;align=center;labelBackgroundColor=#ffffff;verticalAlign=top;strokeWidth=2;strokeColor=#666666;shadow=0;dashed=0;shape=mxgraph.ios7.icons.data;fillColor=#f5f5f5;fontColor=#333333;" vertex="1" parent="1">
          <mxGeometry x="550" y="265" width="57" height="50" as="geometry" />
        </mxCell>
        <mxCell id="3sriAWT7Od-GNfo9Kn1I-34" value="" style="html=1;verticalLabelPosition=bottom;align=center;labelBackgroundColor=#ffffff;verticalAlign=top;strokeWidth=2;strokeColor=#d6b656;shadow=0;dashed=0;shape=mxgraph.ios7.icons.data;fillColor=#fff2cc;" vertex="1" parent="1">
          <mxGeometry x="776.51" y="265" width="57" height="50" as="geometry" />
        </mxCell>
        <mxCell id="3sriAWT7Od-GNfo9Kn1I-37" value="" style="shape=singleArrow;whiteSpace=wrap;html=1;fillColor=#dae8fc;strokeColor=#6c8ebf;" vertex="1" parent="1">
          <mxGeometry x="150" y="420" width="90" height="30" as="geometry" />
        </mxCell>
        <mxCell id="3sriAWT7Od-GNfo9Kn1I-38" value="" style="shape=singleArrow;whiteSpace=wrap;html=1;fillColor=#dae8fc;strokeColor=#6c8ebf;" vertex="1" parent="1">
          <mxGeometry x="430" y="430" width="69.12" height="30" as="geometry" />
        </mxCell>
        <mxCell id="3sriAWT7Od-GNfo9Kn1I-39" value="" style="shape=singleArrow;whiteSpace=wrap;html=1;fillColor=#dae8fc;strokeColor=#6c8ebf;" vertex="1" parent="1">
          <mxGeometry x="640" y="430" width="90" height="30" as="geometry" />
        </mxCell>
        <mxCell id="3sriAWT7Od-GNfo9Kn1I-40" value="" style="shape=singleArrow;whiteSpace=wrap;html=1;fillColor=#dae8fc;strokeColor=#6c8ebf;" vertex="1" parent="1">
          <mxGeometry x="890" y="430" width="90" height="30" as="geometry" />
        </mxCell>
        <mxCell id="3sriAWT7Od-GNfo9Kn1I-47" value="&lt;b style=&quot;&quot;&gt;&lt;font style=&quot;font-size: 14px;&quot;&gt;Raw Data&lt;/font&gt;&lt;/b&gt;" style="text;html=1;align=center;verticalAlign=middle;whiteSpace=wrap;rounded=0;shadow=0;" vertex="1" parent="1">
          <mxGeometry x="306.75" y="330" width="96.5" height="30" as="geometry" />
        </mxCell>
        <mxCell id="3sriAWT7Od-GNfo9Kn1I-49" value="&lt;b style=&quot;&quot;&gt;&lt;font style=&quot;font-size: 14px;&quot;&gt;Cleaned, Standardized Data&lt;/font&gt;&lt;/b&gt;" style="text;html=1;align=center;verticalAlign=middle;whiteSpace=wrap;rounded=0;" vertex="1" parent="1">
          <mxGeometry x="495" y="330" width="174.12" height="30" as="geometry" />
        </mxCell>
        <mxCell id="3sriAWT7Od-GNfo9Kn1I-50" value="&lt;b style=&quot;&quot;&gt;&lt;font style=&quot;font-size: 14px;&quot;&gt;Business-Ready-Data&lt;/font&gt;&lt;/b&gt;" style="text;html=1;align=center;verticalAlign=middle;whiteSpace=wrap;rounded=0;" vertex="1" parent="1">
          <mxGeometry x="713.39" y="330" width="183.25" height="30" as="geometry" />
        </mxCell>
        <mxCell id="3sriAWT7Od-GNfo9Kn1I-51" value="" style="shape=link;html=1;rounded=0;" edge="1" parent="1">
          <mxGeometry width="100" relative="1" as="geometry">
            <mxPoint x="303.25" y="370" as="sourcePoint" />
            <mxPoint x="403.25" y="370" as="targetPoint" />
            <Array as="points" />
          </mxGeometry>
        </mxCell>
        <mxCell id="3sriAWT7Od-GNfo9Kn1I-52" value="" style="shape=link;html=1;rounded=0;" edge="1" parent="1">
          <mxGeometry width="100" relative="1" as="geometry">
            <mxPoint x="530" y="370" as="sourcePoint" />
            <mxPoint x="630" y="370" as="targetPoint" />
            <Array as="points" />
          </mxGeometry>
        </mxCell>
        <mxCell id="3sriAWT7Od-GNfo9Kn1I-53" value="" style="shape=link;html=1;rounded=0;" edge="1" parent="1">
          <mxGeometry width="100" relative="1" as="geometry">
            <mxPoint x="755.01" y="370" as="sourcePoint" />
            <mxPoint x="855.01" y="370" as="targetPoint" />
            <Array as="points" />
          </mxGeometry>
        </mxCell>
        <mxCell id="3sriAWT7Od-GNfo9Kn1I-54" value="&lt;b&gt;Object Type:&lt;/b&gt;&amp;nbsp;Table&lt;div&gt;&lt;br&gt;&lt;div&gt;&lt;b&gt;Load:&amp;nbsp;&lt;/b&gt;&lt;/div&gt;&lt;div&gt;&lt;ul&gt;&lt;li&gt;Batch Processing&lt;/li&gt;&lt;li&gt;Full Load&amp;nbsp;&lt;/li&gt;&lt;li&gt;Truncate &amp;amp; Insert&lt;/li&gt;&lt;/ul&gt;&lt;div&gt;&lt;b&gt;&lt;br&gt;&lt;/b&gt;&lt;/div&gt;&lt;/div&gt;&lt;div&gt;No&lt;b&gt; Transformations&lt;/b&gt;&lt;/div&gt;&lt;div&gt;&lt;b&gt;&lt;br&gt;&lt;/b&gt;&lt;/div&gt;&lt;div&gt;&lt;b&gt;Data Model: &lt;/b&gt;None (as-is)&lt;/div&gt;&lt;/div&gt;" style="text;html=1;align=left;verticalAlign=middle;whiteSpace=wrap;rounded=0;shadow=0;" vertex="1" parent="1">
          <mxGeometry x="290" y="340" width="170" height="260" as="geometry" />
        </mxCell>
        <mxCell id="3sriAWT7Od-GNfo9Kn1I-55" value="&lt;b&gt;Object Type:&lt;/b&gt;&amp;nbsp;Table&lt;div&gt;&lt;br&gt;&lt;div&gt;&lt;b&gt;Load:&amp;nbsp;&lt;/b&gt;&lt;/div&gt;&lt;div&gt;&lt;ul&gt;&lt;li&gt;Batch Processing&lt;/li&gt;&lt;li&gt;Full Load&amp;nbsp;&lt;/li&gt;&lt;li&gt;Truncate &amp;amp; Insert&lt;/li&gt;&lt;/ul&gt;&lt;div&gt;&lt;b&gt;&lt;br&gt;&lt;/b&gt;&lt;/div&gt;&lt;/div&gt;&lt;div&gt;&lt;b&gt;Transformations&lt;/b&gt;&lt;/div&gt;&lt;div&gt;&lt;ul&gt;&lt;li&gt;Date Cleaning&lt;/li&gt;&lt;li&gt;Data Standardrization&lt;/li&gt;&lt;li&gt;Data Normalization&lt;/li&gt;&lt;li&gt;Derived Columns&lt;/li&gt;&lt;li&gt;Data Enrichment&lt;/li&gt;&lt;/ul&gt;&lt;/div&gt;&lt;div&gt;&lt;b&gt;&lt;br&gt;&lt;/b&gt;&lt;/div&gt;&lt;div&gt;&lt;b&gt;Data Model: &lt;/b&gt;None (as-is)&lt;/div&gt;&lt;/div&gt;" style="text;html=1;align=left;verticalAlign=middle;whiteSpace=wrap;rounded=0;" vertex="1" parent="1">
          <mxGeometry x="499.12" y="390" width="170" height="260" as="geometry" />
        </mxCell>
        <mxCell id="3sriAWT7Od-GNfo9Kn1I-56" value="&lt;b&gt;Object Type:&lt;/b&gt;&amp;nbsp;Views&lt;div&gt;&lt;br&gt;&lt;/div&gt;&lt;div&gt;No &lt;b&gt;Load&lt;/b&gt;&lt;/div&gt;&lt;div&gt;&lt;b&gt;&lt;br&gt;&lt;/b&gt;&lt;div&gt;&lt;div&gt;&lt;b&gt;Transformations&lt;/b&gt;&lt;/div&gt;&lt;div&gt;&lt;ul&gt;&lt;li&gt;Data Integrations&lt;/li&gt;&lt;li&gt;Aggregations&lt;/li&gt;&lt;li&gt;Business Logics&lt;/li&gt;&lt;/ul&gt;&lt;/div&gt;&lt;div&gt;&lt;b&gt;&lt;br&gt;&lt;/b&gt;&lt;/div&gt;&lt;div&gt;&lt;b&gt;Data Modle:&amp;nbsp;&lt;/b&gt;&lt;/div&gt;&lt;/div&gt;&lt;/div&gt;&lt;div&gt;&lt;ul&gt;&lt;li&gt;Star Schema&lt;/li&gt;&lt;li&gt;Flat Table&lt;/li&gt;&lt;li&gt;Aggregated Tabl&lt;b&gt;e&lt;/b&gt;&lt;/li&gt;&lt;/ul&gt;&lt;/div&gt;" style="text;html=1;align=left;verticalAlign=middle;whiteSpace=wrap;rounded=0;" vertex="1" parent="1">
          <mxGeometry x="730" y="380" width="170" height="260" as="geometry" />
        </mxCell>
        <mxCell id="3sriAWT7Od-GNfo9Kn1I-58" value="BI &amp;amp; Reporting" style="text;html=1;align=center;verticalAlign=middle;whiteSpace=wrap;rounded=0;" vertex="1" parent="1">
          <mxGeometry x="1000" y="265" width="90" height="30" as="geometry" />
        </mxCell>
        <mxCell id="3sriAWT7Od-GNfo9Kn1I-59" value="Ad-Hoc&lt;div&gt;SQL Queries&lt;/div&gt;" style="text;html=1;align=center;verticalAlign=middle;whiteSpace=wrap;rounded=0;" vertex="1" parent="1">
          <mxGeometry x="1000" y="430" width="90" height="30" as="geometry" />
        </mxCell>
        <mxCell id="3sriAWT7Od-GNfo9Kn1I-60" value="Machine Learning" style="text;html=1;align=center;verticalAlign=middle;whiteSpace=wrap;rounded=0;" vertex="1" parent="1">
          <mxGeometry x="1000" y="620" width="90" height="30" as="geometry" />
        </mxCell>
        <mxCell id="3sriAWT7Od-GNfo9Kn1I-61" value="" style="image;html=1;image=img/lib/clip_art/finance/Pie_Chart_128x128.png" vertex="1" parent="1">
          <mxGeometry x="1012.5" y="210" width="65" height="60" as="geometry" />
        </mxCell>
        <mxCell id="3sriAWT7Od-GNfo9Kn1I-62" value="" style="shadow=0;dashed=0;html=1;strokeColor=none;fillColor=#4495D1;labelPosition=center;verticalLabelPosition=bottom;verticalAlign=top;align=center;outlineConnect=0;shape=mxgraph.veeam.magnifying_glass;pointerEvents=1;" vertex="1" parent="1">
          <mxGeometry x="1012.5" y="365.6" width="55.2" height="54.4" as="geometry" />
        </mxCell>
        <mxCell id="3sriAWT7Od-GNfo9Kn1I-64" value="" style="points=[];aspect=fixed;html=1;align=center;shadow=0;dashed=0;fillColor=#FF6A00;strokeColor=none;shape=mxgraph.alibaba_cloud.gdb_graph_database;" vertex="1" parent="1">
          <mxGeometry x="1012.8" y="560" width="54.9" height="47.4" as="geometry" />
        </mxCell>
        <mxCell id="3sriAWT7Od-GNfo9Kn1I-65" value="" style="image;sketch=0;aspect=fixed;html=1;points=[];align=center;fontSize=12;image=img/lib/mscae/dep/SQL_Server_Stretch_DB.svg;" vertex="1" parent="1">
          <mxGeometry x="230" y="130" width="20" height="20" as="geometry" />
        </mxCell>
        <mxCell id="3sriAWT7Od-GNfo9Kn1I-66" value="Microsoft SQL Server" style="text;html=1;align=center;verticalAlign=middle;whiteSpace=wrap;rounded=0;" vertex="1" parent="1">
          <mxGeometry x="250" y="125" width="73.5" height="30" as="geometry" />
        </mxCell>
      </root>
    </mxGraphModel>
  </diagram>
</mxfile>
